<svg width="48" height="48" viewBox="0 0 48 48" fill="none" xmlns="http://www.w3.org/2000/svg">
    <g filter="url(#filter0_i_26665_24033)">
        <path
            d="M24 4C35.0457 4 44 12.9543 44 24C44 35.0457 35.0457 44 24 44C12.9543 44 4 35.0457 4 24C4 12.9543 12.9543 4 24 4ZM23.334 30.9111C21.8757 30.9114 20.6934 32.0301 20.6934 33.4561C20.6935 34.8818 21.8758 35.9998 23.334 36C24.8086 36 25.992 34.882 25.9922 33.4561C25.9922 32.03 24.8087 30.9111 23.334 30.9111ZM23.9502 12C20.4661 12 17.8731 13.3775 16.8359 15.5166C16.5119 16.1324 16.3496 16.7485 16.3496 17.4453C16.3498 18.6766 17.144 19.4705 18.4238 19.4707C19.4123 19.4707 20.1417 19.0166 20.5469 17.9795C21.0655 16.5373 22.1356 15.7598 23.7236 15.7598C25.5059 15.7599 26.7371 16.8614 26.7373 18.4492C26.7373 19.9401 26.1051 20.7512 24.0146 21.999C22.1028 23.1171 21.1143 24.381 21.1143 26.293V26.5195C21.1143 27.8483 21.9245 28.7889 23.3018 28.7891C24.4522 28.7891 25.085 28.1569 25.3281 27.0713C25.5388 25.71 26.0244 25.0125 28.1797 23.7646C30.4646 22.4196 31.6475 20.7507 31.6475 18.3037C31.6474 14.528 28.5524 12 23.9502 12Z"
            fill="url(#paint0_radial_26665_24033)" />
    </g>
    <g filter="url(#filter1_i_26665_24033)">
        <path
            d="M24 4C35.0457 4 44 12.9543 44 24C44 35.0457 35.0457 44 24 44C12.9543 44 4 35.0457 4 24C4 12.9543 12.9543 4 24 4ZM23.334 30.9111C21.8757 30.9114 20.6934 32.0301 20.6934 33.4561C20.6935 34.8818 21.8758 35.9998 23.334 36C24.8086 36 25.992 34.882 25.9922 33.4561C25.9922 32.03 24.8087 30.9111 23.334 30.9111ZM23.9502 12C20.4661 12 17.8731 13.3775 16.8359 15.5166C16.5119 16.1324 16.3496 16.7485 16.3496 17.4453C16.3498 18.6766 17.144 19.4705 18.4238 19.4707C19.4123 19.4707 20.1417 19.0166 20.5469 17.9795C21.0655 16.5373 22.1356 15.7598 23.7236 15.7598C25.5059 15.7599 26.7371 16.8614 26.7373 18.4492C26.7373 19.9401 26.1051 20.7512 24.0146 21.999C22.1028 23.1171 21.1143 24.381 21.1143 26.293V26.5195C21.1143 27.8483 21.9245 28.7889 23.3018 28.7891C24.4522 28.7891 25.085 28.1569 25.3281 27.0713C25.5388 25.71 26.0244 25.0125 28.1797 23.7646C30.4646 22.4196 31.6475 20.7507 31.6475 18.3037C31.6474 14.528 28.5524 12 23.9502 12Z"
            fill="url(#paint1_radial_26665_24033)" />
    </g>
    <g filter="url(#filter2_i_26665_24033)">
        <path
            d="M24 4C35.0457 4 44 12.9543 44 24C44 35.0457 35.0457 44 24 44C12.9543 44 4 35.0457 4 24C4 12.9543 12.9543 4 24 4ZM23.334 30.9111C21.8757 30.9114 20.6934 32.0301 20.6934 33.4561C20.6935 34.8818 21.8758 35.9998 23.334 36C24.8086 36 25.992 34.882 25.9922 33.4561C25.9922 32.03 24.8087 30.9111 23.334 30.9111ZM23.9502 12C20.4661 12 17.8731 13.3775 16.8359 15.5166C16.5119 16.1324 16.3496 16.7485 16.3496 17.4453C16.3498 18.6766 17.144 19.4705 18.4238 19.4707C19.4123 19.4707 20.1417 19.0166 20.5469 17.9795C21.0655 16.5373 22.1356 15.7598 23.7236 15.7598C25.5059 15.7599 26.7371 16.8614 26.7373 18.4492C26.7373 19.9401 26.1051 20.7512 24.0146 21.999C22.1028 23.1171 21.1143 24.381 21.1143 26.293V26.5195C21.1143 27.8483 21.9245 28.7889 23.3018 28.7891C24.4522 28.7891 25.085 28.1569 25.3281 27.0713C25.5388 25.71 26.0244 25.0125 28.1797 23.7646C30.4646 22.4196 31.6475 20.7507 31.6475 18.3037C31.6474 14.528 28.5524 12 23.9502 12Z"
            fill="url(#paint2_radial_26665_24033)" />
    </g>
    <g filter="url(#filter3_i_26665_24033)">
        <path
            d="M24 4C35.0457 4 44 12.9543 44 24C44 35.0457 35.0457 44 24 44C12.9543 44 4 35.0457 4 24C4 12.9543 12.9543 4 24 4ZM23.334 30.9111C21.8757 30.9114 20.6934 32.0301 20.6934 33.4561C20.6935 34.8818 21.8758 35.9998 23.334 36C24.8086 36 25.992 34.882 25.9922 33.4561C25.9922 32.03 24.8087 30.9111 23.334 30.9111ZM23.9502 12C20.4661 12 17.8731 13.3775 16.8359 15.5166C16.5119 16.1324 16.3496 16.7485 16.3496 17.4453C16.3498 18.6766 17.144 19.4705 18.4238 19.4707C19.4123 19.4707 20.1417 19.0166 20.5469 17.9795C21.0655 16.5373 22.1356 15.7598 23.7236 15.7598C25.5059 15.7599 26.7371 16.8614 26.7373 18.4492C26.7373 19.9401 26.1051 20.7512 24.0146 21.999C22.1028 23.1171 21.1143 24.381 21.1143 26.293V26.5195C21.1143 27.8483 21.9245 28.7889 23.3018 28.7891C24.4522 28.7891 25.085 28.1569 25.3281 27.0713C25.5388 25.71 26.0244 25.0125 28.1797 23.7646C30.4646 22.4196 31.6475 20.7507 31.6475 18.3037C31.6474 14.528 28.5524 12 23.9502 12Z"
            fill="url(#paint3_radial_26665_24033)" />
    </g>
    <g filter="url(#filter4_i_26665_24033)">
        <path
            d="M24 4C35.0457 4 44 12.9543 44 24C44 35.0457 35.0457 44 24 44C12.9543 44 4 35.0457 4 24C4 12.9543 12.9543 4 24 4ZM23.334 30.9111C21.8757 30.9114 20.6934 32.0301 20.6934 33.4561C20.6935 34.8818 21.8758 35.9998 23.334 36C24.8086 36 25.992 34.882 25.9922 33.4561C25.9922 32.03 24.8087 30.9111 23.334 30.9111ZM23.9502 12C20.4661 12 17.8731 13.3775 16.8359 15.5166C16.5119 16.1324 16.3496 16.7485 16.3496 17.4453C16.3498 18.6766 17.144 19.4705 18.4238 19.4707C19.4123 19.4707 20.1417 19.0166 20.5469 17.9795C21.0655 16.5373 22.1356 15.7598 23.7236 15.7598C25.5059 15.7599 26.7371 16.8614 26.7373 18.4492C26.7373 19.9401 26.1051 20.7512 24.0146 21.999C22.1028 23.1171 21.1143 24.381 21.1143 26.293V26.5195C21.1143 27.8483 21.9245 28.7889 23.3018 28.7891C24.4522 28.7891 25.085 28.1569 25.3281 27.0713C25.5388 25.71 26.0244 25.0125 28.1797 23.7646C30.4646 22.4196 31.6475 20.7507 31.6475 18.3037C31.6474 14.528 28.5524 12 23.9502 12Z"
            fill="url(#paint4_radial_26665_24033)" />
    </g>
    <g filter="url(#filter5_i_26665_24033)">
        <path
            d="M24 4C35.0457 4 44 12.9543 44 24C44 35.0457 35.0457 44 24 44C12.9543 44 4 35.0457 4 24C4 12.9543 12.9543 4 24 4ZM23.334 30.9111C21.8757 30.9114 20.6934 32.0301 20.6934 33.4561C20.6935 34.8818 21.8758 35.9998 23.334 36C24.8086 36 25.992 34.882 25.9922 33.4561C25.9922 32.03 24.8087 30.9111 23.334 30.9111ZM23.9502 12C20.4661 12 17.8731 13.3775 16.8359 15.5166C16.5119 16.1324 16.3496 16.7485 16.3496 17.4453C16.3498 18.6766 17.144 19.4705 18.4238 19.4707C19.4123 19.4707 20.1417 19.0166 20.5469 17.9795C21.0655 16.5373 22.1356 15.7598 23.7236 15.7598C25.5059 15.7599 26.7371 16.8614 26.7373 18.4492C26.7373 19.9401 26.1051 20.7512 24.0146 21.999C22.1028 23.1171 21.1143 24.381 21.1143 26.293V26.5195C21.1143 27.8483 21.9245 28.7889 23.3018 28.7891C24.4522 28.7891 25.085 28.1569 25.3281 27.0713C25.5388 25.71 26.0244 25.0125 28.1797 23.7646C30.4646 22.4196 31.6475 20.7507 31.6475 18.3037C31.6474 14.528 28.5524 12 23.9502 12Z"
            fill="url(#paint5_radial_26665_24033)" />
    </g>
    <g filter="url(#filter6_i_26665_24033)">
        <path
            d="M24 4C35.0457 4 44 12.9543 44 24C44 35.0457 35.0457 44 24 44C12.9543 44 4 35.0457 4 24C4 12.9543 12.9543 4 24 4ZM23.334 30.9111C21.8757 30.9114 20.6934 32.0301 20.6934 33.4561C20.6935 34.8818 21.8758 35.9998 23.334 36C24.8086 36 25.992 34.882 25.9922 33.4561C25.9922 32.03 24.8087 30.9111 23.334 30.9111ZM23.9502 12C20.4661 12 17.8731 13.3775 16.8359 15.5166C16.5119 16.1324 16.3496 16.7485 16.3496 17.4453C16.3498 18.6766 17.144 19.4705 18.4238 19.4707C19.4123 19.4707 20.1417 19.0166 20.5469 17.9795C21.0655 16.5373 22.1356 15.7598 23.7236 15.7598C25.5059 15.7599 26.7371 16.8614 26.7373 18.4492C26.7373 19.9401 26.1051 20.7512 24.0146 21.999C22.1028 23.1171 21.1143 24.381 21.1143 26.293V26.5195C21.1143 27.8483 21.9245 28.7889 23.3018 28.7891C24.4522 28.7891 25.085 28.1569 25.3281 27.0713C25.5388 25.71 26.0244 25.0125 28.1797 23.7646C30.4646 22.4196 31.6475 20.7507 31.6475 18.3037C31.6474 14.528 28.5524 12 23.9502 12Z"
            fill="url(#paint6_radial_26665_24033)" />
    </g>
    <defs>
        <filter id="filter0_i_26665_24033" x="4" y="4" width="40" height="40"
            filterUnits="userSpaceOnUse" color-interpolation-filters="sRGB">
            <feFlood flood-opacity="0" result="BackgroundImageFix" />
            <feBlend mode="normal" in="SourceGraphic" in2="BackgroundImageFix" result="shape" />
            <feColorMatrix in="SourceAlpha" type="matrix"
                values="0 0 0 0 0 0 0 0 0 0 0 0 0 0 0 0 0 0 127 0" result="hardAlpha" />
            <feOffset />
            <feGaussianBlur stdDeviation="1.5" />
            <feComposite in2="hardAlpha" operator="arithmetic" k2="-1" k3="1" />
            <feColorMatrix type="matrix" values="0 0 0 0 1 0 0 0 0 1 0 0 0 0 1 0 0 0 1 0" />
            <feBlend mode="normal" in2="shape" result="effect1_innerShadow_26665_24033" />
        </filter>
        <filter id="filter1_i_26665_24033" x="4" y="4" width="40" height="40"
            filterUnits="userSpaceOnUse" color-interpolation-filters="sRGB">
            <feFlood flood-opacity="0" result="BackgroundImageFix" />
            <feBlend mode="normal" in="SourceGraphic" in2="BackgroundImageFix" result="shape" />
            <feColorMatrix in="SourceAlpha" type="matrix"
                values="0 0 0 0 0 0 0 0 0 0 0 0 0 0 0 0 0 0 127 0" result="hardAlpha" />
            <feOffset />
            <feGaussianBlur stdDeviation="1.5" />
            <feComposite in2="hardAlpha" operator="arithmetic" k2="-1" k3="1" />
            <feColorMatrix type="matrix" values="0 0 0 0 1 0 0 0 0 1 0 0 0 0 1 0 0 0 1 0" />
            <feBlend mode="normal" in2="shape" result="effect1_innerShadow_26665_24033" />
        </filter>
        <filter id="filter2_i_26665_24033" x="4" y="4" width="40" height="40"
            filterUnits="userSpaceOnUse" color-interpolation-filters="sRGB">
            <feFlood flood-opacity="0" result="BackgroundImageFix" />
            <feBlend mode="normal" in="SourceGraphic" in2="BackgroundImageFix" result="shape" />
            <feColorMatrix in="SourceAlpha" type="matrix"
                values="0 0 0 0 0 0 0 0 0 0 0 0 0 0 0 0 0 0 127 0" result="hardAlpha" />
            <feOffset />
            <feGaussianBlur stdDeviation="1.5" />
            <feComposite in2="hardAlpha" operator="arithmetic" k2="-1" k3="1" />
            <feColorMatrix type="matrix" values="0 0 0 0 1 0 0 0 0 1 0 0 0 0 1 0 0 0 1 0" />
            <feBlend mode="normal" in2="shape" result="effect1_innerShadow_26665_24033" />
        </filter>
        <filter id="filter3_i_26665_24033" x="4" y="4" width="40" height="40"
            filterUnits="userSpaceOnUse" color-interpolation-filters="sRGB">
            <feFlood flood-opacity="0" result="BackgroundImageFix" />
            <feBlend mode="normal" in="SourceGraphic" in2="BackgroundImageFix" result="shape" />
            <feColorMatrix in="SourceAlpha" type="matrix"
                values="0 0 0 0 0 0 0 0 0 0 0 0 0 0 0 0 0 0 127 0" result="hardAlpha" />
            <feOffset />
            <feGaussianBlur stdDeviation="1.5" />
            <feComposite in2="hardAlpha" operator="arithmetic" k2="-1" k3="1" />
            <feColorMatrix type="matrix" values="0 0 0 0 1 0 0 0 0 1 0 0 0 0 1 0 0 0 1 0" />
            <feBlend mode="normal" in2="shape" result="effect1_innerShadow_26665_24033" />
        </filter>
        <filter id="filter4_i_26665_24033" x="4" y="4" width="40" height="40"
            filterUnits="userSpaceOnUse" color-interpolation-filters="sRGB">
            <feFlood flood-opacity="0" result="BackgroundImageFix" />
            <feBlend mode="normal" in="SourceGraphic" in2="BackgroundImageFix" result="shape" />
            <feColorMatrix in="SourceAlpha" type="matrix"
                values="0 0 0 0 0 0 0 0 0 0 0 0 0 0 0 0 0 0 127 0" result="hardAlpha" />
            <feOffset />
            <feGaussianBlur stdDeviation="1.5" />
            <feComposite in2="hardAlpha" operator="arithmetic" k2="-1" k3="1" />
            <feColorMatrix type="matrix" values="0 0 0 0 1 0 0 0 0 1 0 0 0 0 1 0 0 0 1 0" />
            <feBlend mode="normal" in2="shape" result="effect1_innerShadow_26665_24033" />
        </filter>
        <filter id="filter5_i_26665_24033" x="4" y="4" width="40" height="40"
            filterUnits="userSpaceOnUse" color-interpolation-filters="sRGB">
            <feFlood flood-opacity="0" result="BackgroundImageFix" />
            <feBlend mode="normal" in="SourceGraphic" in2="BackgroundImageFix" result="shape" />
            <feColorMatrix in="SourceAlpha" type="matrix"
                values="0 0 0 0 0 0 0 0 0 0 0 0 0 0 0 0 0 0 127 0" result="hardAlpha" />
            <feOffset />
            <feGaussianBlur stdDeviation="1.5" />
            <feComposite in2="hardAlpha" operator="arithmetic" k2="-1" k3="1" />
            <feColorMatrix type="matrix" values="0 0 0 0 1 0 0 0 0 1 0 0 0 0 1 0 0 0 1 0" />
            <feBlend mode="normal" in2="shape" result="effect1_innerShadow_26665_24033" />
        </filter>
        <filter id="filter6_i_26665_24033" x="4" y="4" width="40" height="40"
            filterUnits="userSpaceOnUse" color-interpolation-filters="sRGB">
            <feFlood flood-opacity="0" result="BackgroundImageFix" />
            <feBlend mode="normal" in="SourceGraphic" in2="BackgroundImageFix" result="shape" />
            <feColorMatrix in="SourceAlpha" type="matrix"
                values="0 0 0 0 0 0 0 0 0 0 0 0 0 0 0 0 0 0 127 0" result="hardAlpha" />
            <feOffset />
            <feGaussianBlur stdDeviation="1.5" />
            <feComposite in2="hardAlpha" operator="arithmetic" k2="-1" k3="1" />
            <feColorMatrix type="matrix" values="0 0 0 0 1 0 0 0 0 1 0 0 0 0 1 0 0 0 1 0" />
            <feBlend mode="normal" in2="shape" result="effect1_innerShadow_26665_24033" />
        </filter>
        <radialGradient id="paint0_radial_26665_24033" cx="0" cy="0" r="1"
            gradientUnits="userSpaceOnUse"
            gradientTransform="translate(24 24) rotate(-89.3151) scale(105.113 89.2453)">
            <stop stop-color="white" stop-opacity="0" />
            <stop offset="1" stop-color="white" />
        </radialGradient>
        <radialGradient id="paint1_radial_26665_24033" cx="0" cy="0" r="1"
            gradientUnits="userSpaceOnUse"
            gradientTransform="translate(24 24) rotate(-89.3151) scale(105.113 89.2453)">
            <stop stop-color="white" stop-opacity="0" />
            <stop offset="1" stop-color="white" />
        </radialGradient>
        <radialGradient id="paint2_radial_26665_24033" cx="0" cy="0" r="1"
            gradientUnits="userSpaceOnUse"
            gradientTransform="translate(24 24) rotate(-89.3151) scale(105.113 89.2453)">
            <stop stop-color="white" stop-opacity="0" />
            <stop offset="1" stop-color="white" />
        </radialGradient>
        <radialGradient id="paint3_radial_26665_24033" cx="0" cy="0" r="1"
            gradientUnits="userSpaceOnUse"
            gradientTransform="translate(24 24) rotate(-89.3151) scale(105.113 89.2453)">
            <stop stop-color="white" stop-opacity="0" />
            <stop offset="1" stop-color="white" />
        </radialGradient>
        <radialGradient id="paint4_radial_26665_24033" cx="0" cy="0" r="1"
            gradientUnits="userSpaceOnUse"
            gradientTransform="translate(24 24) rotate(-89.3151) scale(105.113 89.2453)">
            <stop stop-color="white" stop-opacity="0" />
            <stop offset="1" stop-color="white" />
        </radialGradient>
        <radialGradient id="paint5_radial_26665_24033" cx="0" cy="0" r="1"
            gradientUnits="userSpaceOnUse"
            gradientTransform="translate(24 24) rotate(-89.3151) scale(105.113 89.2453)">
            <stop stop-color="white" stop-opacity="0" />
            <stop offset="1" stop-color="white" />
        </radialGradient>
        <radialGradient id="paint6_radial_26665_24033" cx="0" cy="0" r="1"
            gradientUnits="userSpaceOnUse"
            gradientTransform="translate(24 24) rotate(-89.3151) scale(105.113 89.2453)">
            <stop stop-color="white" stop-opacity="0" />
            <stop offset="1" stop-color="white" />
        </radialGradient>
    </defs>
</svg>
    